# xmcd
#
# Track frame offsets: 
#        150
#        13974
#        23361
#        38251
#        46821
#        60633
#        74601
#        92913
#        110241
#        120379
#        127960
#        145660
#
# Disc length: 2119 seconds
#
# Revision: 0
# Processed by: cddbd v1.5.2PL0 Copyright (c) Steve Scherf et al.
# Submitted via: ExactAudioCopy v0.99pb5
#
DISCID=9a08450c
DTITLE=Various Artist - Toy Story Favorites
DYEAR=2010
DGENRE=Pop
TTITLE0=Aleks Syntek y Danna Paola - Yo Soy Tu Amigo Fiel
TTITLE1=Randy Newman - You've Got a Friend In Me
TTITLE2=Ricardo Murguía - Cambios Extraños
TTITLE3=Riders In The Sky - Woody's Roundup
TTITLE4=Alessandra Rosaldo - Cuando Ella Me Amaba
TTITLE5=Sarah McLachlan - When She Loved Me
TTITLE6=Randy Newman - We Belong Together
TTITLE7=Aleks Syntek - Nos Pertenecemos
TTITLE8=Gipsy Kings - You've Got A Friend In Me
TTITLE9=Randy Newman - Buzz
TTITLE10=Randy Newman - Woody's Dream
TTITLE11=Randy Newman - I Will Go Sailing No More
EXTD=
EXTT0=
EXTT1=
EXTT2=
EXTT3=
EXTT4=
EXTT5=
EXTT6=
EXTT7=
EXTT8=
EXTT9=
EXTT10=
EXTT11=
PLAYORDER=
